<svg width="64" height="64" viewBox="0 0 32 32" xmlns="http://www.w3.org/2000/svg"><rect x="0" y="0" width="32" height="32" rx="8" fill="none"/><svg xmlns="http://www.w3.org/2000/svg" viewBox="0 0 32 32" fill="#000000" x="0" y="0" width="32" height="32"><path fill="#000000" d="m18.83 26l2.58-2.58L20 22l-4 4l4 4l1.42-1.41L18.83 26zm8.34 0l-2.58 2.58L26 30l4-4l-4-4l-1.42 1.41L27.17 26z"/><path fill="#000000" d="M14 28H8V4h8v6a2.006 2.006 0 0 0 2 2h6v6h2v-8a.91.91 0 0 0-.3-.7l-7-7A.909.909 0 0 0 18 2H8a2.006 2.006 0 0 0-2 2v24a2.006 2.006 0 0 0 2 2h6Zm4-23.6l5.6 5.6H18Z"/></svg></svg>